<?xml version="1.0" encoding="UTF-8"?>
<svg id="Layer_2" data-name="Layer 2" xmlns="http://www.w3.org/2000/svg" xmlns:xlink="http://www.w3.org/1999/xlink" viewBox="0 0 143.57 143.57">
  <defs>
    <style>
      .cls-1 {
        fill: url(#linear-gradient-2);
      }

      .cls-2 {
        fill: url(#linear-gradient);
      }

      .cls-3 {
        font-family: Montserrat-Black, Montserrat;
        font-size: 14.5px;
        font-weight: 800;
      }

      .cls-3, .cls-4 {
        fill: #fff;
      }

      .cls-5 {
        letter-spacing: .1em;
      }

      .cls-6 {
        letter-spacing: .08em;
      }
    </style>
    <linearGradient id="linear-gradient" x1="71.79" y1="143.57" x2="71.79" y2="0" gradientTransform="translate(71.79 -29.73) rotate(45)" gradientUnits="userSpaceOnUse">
      <stop offset=".29" stop-color="#212936"/>
      <stop offset=".44" stop-color="#2b3442"/>
      <stop offset=".72" stop-color="#455365"/>
      <stop offset="1" stop-color="#66788e"/>
    </linearGradient>
    <linearGradient id="linear-gradient-2" x1="71.79" y1="16.46" x2="71.79" y2="127.11" gradientUnits="userSpaceOnUse">
      <stop offset=".25" stop-color="#212936"/>
      <stop offset=".77" stop-color="#505e72"/>
      <stop offset="1" stop-color="#66788e"/>
    </linearGradient>
  </defs>
  <g id="OBJECTS">
    <g>
      <g>
        <circle class="cls-2" cx="71.79" cy="71.79" r="71.79" transform="translate(-29.73 71.79) rotate(-45)"/>
        <circle class="cls-1" cx="71.79" cy="71.79" r="55.32"/>
        <text class="cls-3" transform="translate(40.73 98.02)"><tspan class="cls-6" x="0" y="0">V</tspan><tspan class="cls-5" x="12.63" y="0">ISION</tspan></text>
      </g>
      <path class="cls-4" d="M71.76,42.95c-13.09,0-23.7,13.22-23.7,13.22,0,0,10.61,13.22,23.7,13.22s23.7-13.22,23.7-13.22c0,0-10.61-13.22-23.7-13.22ZM71.76,64.41c-4.55,0-8.25-3.69-8.25-8.25s3.69-8.25,8.25-8.25,8.25,3.69,8.25,8.25-3.69,8.25-8.25,8.25Z"/>
    </g>
  </g>
</svg>