<svg id="Layer_1" enable-background="new 0 0 512 512" height="512" viewBox="0 0 512 512" width="512" xmlns="http://www.w3.org/2000/svg"><g clip-rule="evenodd" fill-rule="evenodd"><path d="m508.6 178-43.6-31v-74.7c0-4.4-3.6-8-8-8h-108.2c-.1-.1-.1-.1-.2-.2l-88-62.6c-2.8-2-6.5-2-9.3 0l-86.1 61.3c-.6.4-1.1.9-1.6 1.5h-108.6c-4.4 0-8 3.6-8 8v74.7l-43.6 31c-2.1 1.5-3.4 3.9-3.4 6.5v319.5c0 4.4 3.6 8 8 8h496c4.4 0 8-3.6 8-8v-319.5c0-2.6-1.2-5-3.4-6.5zm-43.6-11.4 25.3 18-25.3 18zm-209-148.8 65.2 46.4h-130.4zm-193 62.4h386v133.8l-193.3 137.6-192.7-137.7zm-16 86.4v35.9l-25.2-18zm-31 33.5 173.7 124.1-173.7 163.2zm14.2 295.9 172.8-162.4 48 34.3c1.4 1 3 1.5 4.7 1.5 1.6 0 3.3-.5 4.6-1.5l48.6-34.6 172.8 162.6zm465.8-8.6-173.8-163.5 173.8-123.7z"/><g><path d="m16 200.1v287.3l173.7-163.3z" fill="#ffce67"/><path d="m260.4 367.9c-1.4 1-3 1.5-4.6 1.5s-3.3-.5-4.7-1.5l-48-34.3-172.9 162.4h451.5l-172.8-162.6z" fill="#fdb820"/><path d="m260.4 367.9c-1.3 1-2.9 1.5-4.4 1.5v126.6h225.7l-172.8-162.6z" fill="#fb9a28"/><path d="m465 166.6v36l25.3-18z" fill="#fb9a28"/><path d="m256 17.8-65.2 46.4h130.4z" fill="#fdb820"/><path d="m256 64.2h65.2l-65.2-46.4z" fill="#fb9a28"/><path d="m246.8 175.6c-6.3 1.7-11.6 5.8-14.9 11.5s-4.2 12.3-2.5 18.6c1.7 6.4 5.8 11.7 11.5 15s12.3 4.2 18.7 2.5c3.8-1 7.2-2.9 10.1-5.5l.6-36c-4.6-4.5-10.7-6.9-17-6.9-2.2-.1-4.4.2-6.5.8z" fill="#f6f5f6"/><path d="m256 223.9c1.2-.1 2.4-.4 3.6-.7 3.8-1 7.2-2.9 10.1-5.5l.6-36c-3.9-3.9-9-6.2-14.3-6.8z" fill="#ebeff0"/><path d="m47 166.6-25.2 17.9 25.2 18z" fill="#fdb820"/><path d="m449 214v-133.8h-386v133.7l192.7 137.6zm-274.3 10.6c-5.9-22-2.9-45 8.5-64.7s29.8-33.8 51.8-39.7c28.8-7.7 59-.1 80.7 20.4 13.2 12.5 21.5 27.5 23.8 43.4 2.3 15.5-1.4 30.4-10.4 41.8-5.9 7.5-24 22.2-39.5 22.2-2.4 0-4.7-.4-6.9-1.1-4-1.4-8.6-4.6-11.2-11.3-2.5 1.3-5.2 2.3-7.9 3.1-10.5 2.8-21.5 1.4-30.8-4.1-9.4-5.4-16.1-14.2-18.9-24.7s-1.4-21.4 4.1-30.8c5.4-9.4 14.2-16.1 24.6-18.9 9.6-2.6 19.6-1.5 28.1 2.6.9-3.4 4-5.9 7.7-5.9h.1c4.4.1 7.9 3.7 7.9 8.1l-.9 57c-.1 5.3.9 9.1 2.6 9.7 5.8 2.1 21.9-7.7 28.4-15.9 13.7-17.4 8.7-44.1-11.9-63.6-17.6-16.6-42.2-22.8-65.6-16.6-17.9 4.8-32.8 16.3-42.1 32.3s-11.7 34.7-6.9 52.6 16.3 32.8 32.3 42.1 34.7 11.7 52.6 6.9c12.7-3.4 24.1-10.3 33-19.9 3-3.3 8.1-3.5 11.3-.5 3.3 3 3.5 8.1.5 11.3-10.9 11.9-25 20.4-40.6 24.6-7.4 2-14.8 2.9-22.2 2.9-14.8 0-29.4-3.9-42.5-11.5-19.7-11.4-33.8-29.8-39.7-51.8z" fill="#f6f5f6"/><path d="m496 487.4v-287.2l-173.8 123.7z" fill="#fdb820"/><path d="m279.2 284.9c15.7-4.2 29.7-12.7 40.6-24.6 3-3.3 2.8-8.3-.5-11.3s-8.3-2.8-11.3.5c-8.9 9.6-20.3 16.5-33 19.9-17.9 4.8-36.5 2.3-52.6-6.9-16-9.3-27.5-24.2-32.3-42.1s-2.3-36.5 6.9-52.6c9.3-16 24.2-27.5 42.1-32.3 23.4-6.3 47.9-.1 65.6 16.6 20.6 19.5 25.6 46.2 11.9 63.6-6.5 8.2-22.6 18-28.4 15.9-1.7-.6-2.7-4.4-2.6-9.7l.9-57c.1-4.4-3.5-8.1-7.9-8.1h-.1c-3.7 0-6.8 2.5-7.7 5.9-8.6-4.1-18.5-5.2-28.1-2.6-10.5 2.8-19.2 9.5-24.6 18.9s-6.9 20.3-4.1 30.8 9.5 19.2 18.9 24.7c9.4 5.4 20.3 6.9 30.8 4.1 2.8-.7 5.4-1.8 7.9-3.1 2.6 6.7 7.1 9.8 11.2 11.3 2.2.8 4.5 1.1 6.9 1.1 15.4 0 33.5-14.7 39.5-22.2 9-11.4 12.7-26.2 10.4-41.8-2.4-15.9-10.6-30.9-23.8-43.4-21.7-20.5-51.9-28.1-80.7-20.4-22 5.9-40.4 20-51.8 39.7s-14.4 42.7-8.5 64.7 20 40.4 39.7 51.8c13.1 7.6 27.7 11.5 42.5 11.5 7.4 0 14.8-.9 22.2-2.9zm-9.6-67.3c-2.9 2.6-6.3 4.5-10.1 5.5-6.4 1.7-13 .8-18.7-2.5s-9.8-8.6-11.5-15c-1.7-6.3-.8-13 2.5-18.6 3.3-5.7 8.6-9.8 14.9-11.5 2.1-.6 4.3-.8 6.4-.8 6.3 0 12.4 2.4 17 6.9z"/><path d="m449 214v-133.8h-193v37.1c21.9-.3 43.2 7.8 59.7 23.3 13.2 12.5 21.5 27.5 23.8 43.4 2.3 15.5-1.4 30.4-10.4 41.8-5.9 7.5-24 22.2-39.5 22.2-2.4 0-4.7-.4-6.9-1.1-4-1.4-8.6-4.6-11.2-11.3-2.5 1.3-5.2 2.3-7.9 3.1-2.5.7-5.1 1.1-7.6 1.3v31.9c6.3.1 12.6-.7 18.9-2.4 12.7-3.4 24.1-10.3 33-19.9 3-3.3 8.1-3.5 11.3-.5 3.3 3 3.5 8.1.5 11.3-10.9 11.9-25 20.4-40.6 24.6-7.4 2-14.8 2.9-22.2 2.9-.3 0-.6 0-.9 0v63.4zm-193-55.1v-25.6c17.8-.3 35.2 6.3 48.6 18.9 20.6 19.5 25.6 46.2 11.9 63.6-6.5 8.2-22.6 18-28.4 15.9-1.7-.6-2.7-4.4-2.6-9.7l.9-57c0-4.4-3.5-8-7.9-8.1h-.1c-3.7 0-6.8 2.5-7.7 5.9-4.6-2.2-9.6-3.5-14.7-3.9z" fill="#ebeff0"/></g></g></svg>